<?xml version="1.0" standalone="no"?>
<!DOCTYPE svg PUBLIC "-//W3C//DTD SVG 20010904//EN"
 "http://www.w3.org/TR/2001/REC-SVG-20010904/DTD/svg10.dtd">
<svg version="1.0" xmlns="http://www.w3.org/2000/svg"
 width="70.000000pt" height="70.000000pt" viewBox="0 0 70.000000 70.000000"
 preserveAspectRatio="xMidYMid meet">
<metadata>
Created by potrace 1.11, written by Peter Selinger 2001-2013
</metadata>
<g transform="translate(0.000000,70.000000) scale(0.100000,-0.100000)"
fill="#000000" stroke="none">
<path d="M420 684 c0 -5 13 -23 29 -38 16 -15 37 -45 46 -67 21 -46 39 -53 23
-9 -11 32 -97 133 -98 114z"/>
<path d="M250 641 c-5 -11 -7 -28 -3 -38 7 -18 89 -129 126 -170 11 -13 16
-23 10 -23 -6 0 -48 44 -93 98 -96 113 -117 128 -148 106 -19 -13 -20 -18 -9
-44 12 -28 67 -96 156 -193 24 -26 42 -50 39 -52 -3 -3 -41 32 -84 78 -94 100
-112 112 -142 91 -33 -23 -14 -56 96 -166 104 -106 117 -133 20 -43 -58 54
-79 63 -107 46 -27 -17 -2 -57 86 -137 177 -161 216 -185 278 -177 41 6 106
45 143 87 52 59 57 91 37 253 -6 53 -4 68 18 116 28 62 23 77 -29 77 -42 0
-89 -47 -82 -83 3 -20 -12 -55 -27 -61 -22 -8 -57 26 -131 126 -97 130 -130
154 -154 109z"/>
<path d="M397 629 c12 -13 33 -44 47 -69 14 -25 26 -39 26 -31 0 24 -43 91
-69 108 l-26 16 22 -24z"/>
<path d="M69 242 c13 -24 61 -71 86 -84 11 -6 -1 10 -27 36 -27 25 -48 51 -48
56 0 6 -5 10 -10 10 -7 0 -7 -6 -1 -18z"/>
<path d="M10 233 c0 -15 67 -92 97 -112 46 -30 41 -16 -10 29 -23 21 -49 49
-56 64 -13 24 -31 35 -31 19z"/>
</g>
</svg>
